<svg xmlns="http://www.w3.org/2000/svg" xmlns:xlink="http://www.w3.org/1999/xlink" width="1000" height="1000" viewBox="0 0 1000 1000" class="h-8 md:h-10 w-auto header-logo"><defs><clipPath id="clip-Artboard_1"><rect width="1000" height="1000"></rect></clipPath></defs><g id="Artboard_1" data-name="Artboard 1" clip-path="url(#clip-Artboard_1)"><g id="Group_4620" data-name="Group 4620"><path id="Path_39-2" data-name="Path 39-2" d="M738.256,416.108a615.341,615.341,0,0,0,32.272-93.214,507.135,507.135,0,0,0-125.312,31.5,514.029,514.029,0,0,1-290.03,289.988,508.38,508.38,0,0,0-31.479,125.336,617.442,617.442,0,0,0,93.232-32.272A426.046,426.046,0,0,1,738.256,416.108Z" fill="#040505"></path><path id="Path_36-2" data-name="Path 36-2" d="M212.052,787.567A617.421,617.421,0,0,1,229.9,675.882a500.667,500.667,0,0,1-76.538,3.511,54.936,54.936,0,0,0-56.968,52.826q-.034.934-.038,1.87h0A54.743,54.743,0,0,0,149.1,788.863q9.974.33,19.952.354C183.513,789.223,197.795,788.545,212.052,787.567Z" fill="#1db8dc"></path><path id="Path_38-2" data-name="Path 38-2" d="M680.452,168.214a514.551,514.551,0,0,1-3.738,60.859,618.425,618.425,0,0,1,111.678-17.852c.978-14.227,1.668-28.5,1.668-43q0-9.978-.366-19.958a54.751,54.751,0,0,0-54.756-52.716h0a55,55,0,0,0-54.764,55.24q0,.982.044,1.965Q680.44,160.467,680.452,168.214Z" fill="#1db8dc"></path><path id="Path_40-2" data-name="Path 40-2" d="M738.256,416.108a615.341,615.341,0,0,0,32.272-93.214,507.135,507.135,0,0,0-125.312,31.5,514.029,514.029,0,0,1-290.03,289.988,508.38,508.38,0,0,0-31.479,125.336,617.442,617.442,0,0,0,93.232-32.272A426.046,426.046,0,0,1,738.256,416.108Z" fill="#1db8dc"></path><path id="Path_43-2" data-name="Path 43-2" d="M319.962,830.573a514.535,514.535,0,0,1,3.739-60.858,617.423,617.423,0,0,1-111.685,17.846c-.984,14.227-1.668,28.5-1.668,43q0,9.992.366,19.965a54.744,54.744,0,0,0,54.78,52.739h0a55,55,0,0,0,54.763-55.228q0-.973-.043-1.946Q319.974,838.345,319.962,830.573Z" fill="#5bb057"></path><path id="Path_45-2" data-name="Path 45-2" d="M788.38,211.209a617.943,617.943,0,0,1-17.846,111.684,502.416,502.416,0,0,1,76.544-3.522,54.942,54.942,0,0,0,56.968-52.839q.034-.93.039-1.863h0a54.751,54.751,0,0,0-52.734-54.75q-9.98-.336-19.977-.36C816.9,209.559,802.595,210.237,788.38,211.209Z" fill="#5bb057"></path><path id="Path_46-2" data-name="Path 46-2" d="M645.03,354.7a507.719,507.719,0,0,0,31.462-125.336,619.586,619.586,0,0,0-93.238,32.272A426.049,426.049,0,0,1,261.936,582.971a613.614,613.614,0,0,0-32.271,93.214,507.416,507.416,0,0,0,125.311-31.491A514.057,514.057,0,0,1,645.03,354.7Z" fill="#5bb057"></path><path id="Path_47-2" data-name="Path 47-2" d="M229.862,675.876a618.139,618.139,0,0,0-17.846,111.685A617.359,617.359,0,0,0,323.7,769.715,508.1,508.1,0,0,1,355.18,644.379,506.527,506.527,0,0,1,229.862,675.876Z" fill="#040505"></path><path id="Path_48-2" data-name="Path 48-2" d="M229.862,675.876a618.139,618.139,0,0,0-17.846,111.685A617.359,617.359,0,0,0,323.7,769.715,508.1,508.1,0,0,1,355.18,644.379,506.527,506.527,0,0,1,229.862,675.876Z" fill="#38509e"></path><path id="Path_49-2" data-name="Path 49-2" d="M770.522,322.864a617.93,617.93,0,0,0,17.822-111.685,618.421,618.421,0,0,0-111.678,17.858A507.262,507.262,0,0,1,645.18,354.373,507.385,507.385,0,0,1,770.522,322.864Z" fill="#040505"></path><path id="Path_50-2" data-name="Path 50-2" d="M770.522,322.864a617.93,617.93,0,0,0,17.822-111.685,618.421,618.421,0,0,0-111.678,17.858A507.262,507.262,0,0,1,645.18,354.373,507.385,507.385,0,0,1,770.522,322.864Z" fill="#38509e"></path><path id="Path_52-2" data-name="Path 52-2" d="M416.939,737.449a407.271,407.271,0,0,0-10,114.457,54.6,54.6,0,0,0,54.7,51.371h0a54.713,54.713,0,0,0,54.718-54.709q0-1.449-.076-2.9C507.313,672.285,640.6,524.459,813.987,515.492a314.388,314.388,0,0,1,32.563.005,54.72,54.72,0,0,0,57.479-51.815q.074-1.424.074-2.851h0a54.882,54.882,0,0,0-52.062-54.75A407.166,407.166,0,0,0,738.274,416.12,624.552,624.552,0,0,1,416.939,737.449Z" fill="#5bb057"></path><path id="Path_53-2" data-name="Path 53-2" d="M416.939,737.443A624.523,624.523,0,0,0,738.25,416.108,425.992,425.992,0,0,0,416.939,737.443Z" fill="#38509e"></path><path id="Path_52-3" data-name="Path 52-3" d="M583.031,261.687a407.23,407.23,0,0,0,10-114.451,54.642,54.642,0,0,0-54.7-51.378h0A54.714,54.714,0,0,0,483.644,150.6q0,1.431.076,2.861c8.95,173.4-124.364,321.224-297.764,330.173a314.4,314.4,0,0,1-32.506-.005,54.715,54.715,0,0,0-57.479,51.8q-.074,1.428-.074,2.858h0a54.888,54.888,0,0,0,52.062,54.756A406.942,406.942,0,0,0,261.726,583,624.593,624.593,0,0,1,583.031,261.687Z" fill="#1db8dc"></path><path id="Path_131" data-name="Path 131" d="M392.828,147.446q-.318-3.348-.738-6.691A54.749,54.749,0,0,0,351.46,97.2l-.3-.066c-1.3-.318-2.617-.6-3.961-.822-.306-.055-.6-.085-.936-.133-1.164-.168-2.322-.336-3.5-.432-.93-.078-1.873-.1-2.809-.126-.6,0-1.134-.078-1.71-.078h-.168a54.732,54.732,0,0,0-54.732,54.732h0c0,1.4.078,2.8.18,4.2,0,.078-.09.168-.084.24A112.671,112.671,0,0,1,280.52,197.4a115.256,115.256,0,0,1-82.269,82.287,112.721,112.721,0,0,1-28.8,3.792q-5.5,0-10.969-.522c-.042,0-.1.072-.15.1-.6-.072-1.158-.138-1.74-.186-.252,0-.5-.078-.75-.1-.51-.036-1.038,0-1.548,0-.84-.036-1.662-.126-2.5-.126-.486,0-.948.06-1.428.072-.8,0-1.6.072-2.4.126-1.266.084-2.508.216-3.744.39-.6.078-1.122.084-1.692.174s-1.009.216-1.519.312l-.5.108a54.708,54.708,0,0,0-42.262,42.263l-.1.5c-.1.51-.228,1-.312,1.518s-.1,1.08-.168,1.626q-.282,1.98-.414,4c-.048.774-.1,1.542-.114,2.3,0,.45-.067.882-.067,1.332,0,1.008.1,1.986.15,3,.036.66.043,1.333.1,1.987a56.516,56.516,0,0,0,.84,5.934v.12a52.938,52.938,0,0,0,1.554,5.821c.192.6.432,1.17.642,1.758.468,1.29.96,2.562,1.524,3.811.294.66.6,1.3.936,1.95q.9,1.719,1.8,3.366c.366.6.726,1.236,1.117,1.842.732,1.134,1.512,2.221,2.322,3.3.372.492.72,1,1.1,1.482a55.168,55.168,0,0,0,8.245,8.245c.486.39,1,.744,1.494,1.116,1.068.8,2.16,1.584,3.288,2.31.6.39,1.2.756,1.842,1.122q1.646.972,3.361,1.8c.648.325,1.3.649,1.962.943,1.236.558,2.508,1.056,3.8,1.518.6.216,1.2.456,1.771.648A52.322,52.322,0,0,0,140.722,391h.156a54.294,54.294,0,0,0,5.9.834c.228,0,.456.06.69.078a1.151,1.151,0,0,1-.24-.054c.51.042,1.026.054,1.536.078h-1.3c.222.036.414.12.648.138a221.809,221.809,0,0,0,90.01-10.021A225.125,225.125,0,0,0,382.669,237.666,221.76,221.76,0,0,0,392.828,147.446Z" fill="#1db8dc"></path><path id="Path_132" data-name="Path 132" d="M608.156,852.554c.21,2.232.462,4.458.738,6.685A54.755,54.755,0,0,0,649.53,902.8l.294.066c1.308.318,2.623.6,3.961.822.312.055.63.085.942.133,1.158.168,2.322.336,3.505.432.924.078,1.866.1,2.8.126.6,0,1.134.078,1.71.078h.174a54.732,54.732,0,0,0,54.732-54.732h0c0-1.411-.078-2.8-.186-4.2,0-.078.1-.168.084-.246a112.836,112.836,0,0,1,2.916-42.683A115.286,115.286,0,0,1,802.733,720.3a112.719,112.719,0,0,1,28.8-3.786c3.666,0,7.332.168,10.975.516.036,0,.1-.072.144-.09.6.072,1.158.132,1.746.186.252,0,.492.078.744.1.51.036,1.038,0,1.554,0,.834.042,1.656.126,2.5.126.48,0,.948-.06,1.422-.072.8,0,1.6-.066,2.4-.12q1.89-.132,3.744-.39c.564-.078,1.122-.084,1.692-.18s1.008-.21,1.513-.312l.51-.1a54.7,54.7,0,0,0,42.256-42.263l.108-.51c.1-.5.228-1,.312-1.512s.09-1.08.168-1.626c.186-1.32.318-2.652.408-4,.054-.774.1-1.542.12-2.3,0-.45.066-.888.066-1.338,0-1-.1-1.98-.15-2.97-.036-.666-.042-1.333-.1-1.987a54.907,54.907,0,0,0-.84-5.934v-.12a55.469,55.469,0,0,0-1.554-5.821c-.192-.6-.432-1.2-.642-1.758-.468-1.29-.966-2.568-1.524-3.81-.3-.661-.6-1.3-.942-1.951q-.86-1.716-1.8-3.366c-.366-.6-.732-1.236-1.122-1.842-.726-1.134-1.506-2.221-2.316-3.295-.372-.5-.72-1-1.11-1.482a54.7,54.7,0,0,0-8.245-8.245c-.48-.39-1-.744-1.488-1.116-1.074-.81-2.16-1.584-3.288-2.316-.6-.39-1.2-.756-1.849-1.122-1.1-.642-2.214-1.248-3.36-1.8-.648-.324-1.3-.648-1.956-.949-1.242-.558-2.515-1.05-3.8-1.518-.6-.21-1.2-.45-1.8-.648a54.3,54.3,0,0,0-5.814-1.548h-.156a54.551,54.551,0,0,0-5.9-.84c-.234,0-.462-.054-.7-.072a1.206,1.206,0,0,1,.246.054c-.51-.042-1.026-.054-1.542-.078h1.3c-.222-.036-.414-.12-.642-.144a222.036,222.036,0,0,0-90.01,10.021A225.158,225.158,0,0,0,618.273,762.352,221.905,221.905,0,0,0,608.156,852.554ZM841.582,608.531,664.31,795.014c.492,0,.972.084,1.458.114-.69-.036-1.38-.09-2.082-.1.2,0,.4-.018.612-.012Z" fill="#5bb057"></path><path id="Path_51-2" data-name="Path 51-2" d="M261.782,583A426.046,426.046,0,0,0,583.1,261.667,624.667,624.667,0,0,0,261.782,583Z" fill="#38509e"></path></g></g></svg>
